# xmcd
#
# Track frame offsets:
#	150
#	17170
#	34020
#	46837
#	59117
#	75702
#	88975
#	102155
#	115765
#	130990
#
# Disc length: 1903 seconds
#
# Revision: 1
# Processed by: cddbd v1.5.1PL2 Copyright (c) Steve Scherf et al.
# Submitted via: audiograbber 1.83.01
#
DISCID=82076d0a
DTITLE=Daiquiri - Caribeña
DYEAR=1996
DGENRE=Salsa
TTITLE0=Caribeña
TTITLE1=Será el caribe
TTITLE2=Mujer tropical
TTITLE3=Voy con el mar
TTITLE4=Despecho montuno
TTITLE5=Amor y poesía
TTITLE6=Bajo el sol
TTITLE7=Insolación
TTITLE8=Mi negra
TTITLE9=No te vistas
EXTD=YEAR: 1996
EXTT0=
EXTT1=
EXTT2=
EXTT3=
EXTT4=
EXTT5=
EXTT6=
EXTT7=
EXTT8=
EXTT9=
PLAYORDER=
